<svg width="29" height="29" viewBox="0 0 29 29" fill="none" xmlns="http://www.w3.org/2000/svg">
<g id="vuesax/outline/document-upload">
<g id="document-upload">
<path id="Vector" d="M11.3665 21.362C10.8896 21.362 10.4941 20.9665 10.4941 20.4897V15.6162L9.6567 16.4537C9.31939 16.791 8.7611 16.791 8.4238 16.4537C8.0865 16.1164 8.0865 15.5581 8.4238 15.2208L10.75 12.8945C10.9943 12.6503 11.3781 12.5689 11.7038 12.7085C12.0294 12.8364 12.2388 13.1621 12.2388 13.511V20.4897C12.2388 20.9665 11.8433 21.362 11.3665 21.362Z" fill="#F5705E"/>
<path id="Vector_2" d="M13.694 16.7091C13.4731 16.7091 13.2521 16.6277 13.0776 16.4532L10.7514 14.127C10.4141 13.7897 10.4141 13.2314 10.7514 12.8941C11.0887 12.5568 11.647 12.5568 11.9843 12.8941L14.3105 15.2203C14.6478 15.5576 14.6478 16.1159 14.3105 16.4532C14.136 16.6277 13.915 16.7091 13.694 16.7091Z" fill="#F5705E"/>
<path id="Vector_3" d="M18.3447 27.1773H11.366C5.05032 27.1773 2.3519 24.4789 2.3519 18.1632V11.1845C2.3519 4.86883 5.05032 2.17041 11.366 2.17041H17.1816C17.6584 2.17041 18.0539 2.56587 18.0539 3.04274C18.0539 3.51962 17.6584 3.91508 17.1816 3.91508H11.366C6.00407 3.91508 4.09656 5.82258 4.09656 11.1845V18.1632C4.09656 23.5251 6.00407 25.4326 11.366 25.4326H18.3447C23.7066 25.4326 25.6141 23.5251 25.6141 18.1632V12.3476C25.6141 11.8708 26.0096 11.4753 26.4865 11.4753C26.9633 11.4753 27.3588 11.8708 27.3588 12.3476V18.1632C27.3588 24.4789 24.6604 27.1773 18.3447 27.1773Z" fill="#F5705E"/>
<path id="Vector_4" d="M26.4872 13.22H21.8347C17.8569 13.22 16.31 11.673 16.31 7.69518V3.04274C16.31 2.6938 16.5193 2.36813 16.845 2.24019C17.1707 2.10062 17.5428 2.18203 17.7987 2.42629L27.1036 11.7312C27.3479 11.9754 27.4293 12.3593 27.2897 12.6849C27.1501 13.0106 26.8361 13.22 26.4872 13.22ZM18.0546 5.14797V7.69518C18.0546 10.696 18.8339 11.4753 21.8347 11.4753H24.3819L18.0546 5.14797Z" fill="#F5705E"/>
</g>
</g>
</svg>
