<svg width="30" height="30" viewBox="0 0 30 30" fill="none" xmlns="http://www.w3.org/2000/svg">
<g id="edit">
<path id="Vector" d="M13.8801 5.66443H5.42179C4.78085 5.66443 4.16617 5.91904 3.71295 6.37225C3.25974 6.82547 3.00513 7.44016 3.00513 8.0811V24.9978C3.00513 25.6387 3.25974 26.2534 3.71295 26.7066C4.16617 27.1598 4.78085 27.4144 5.42179 27.4144H22.3385C22.9794 27.4144 23.5941 27.1598 24.0473 26.7066C24.5005 26.2534 24.7551 25.6387 24.7551 24.9978V16.5394" stroke="#19BD22" stroke-width="3" stroke-linecap="round" stroke-linejoin="round"/>
<path id="Vector_2" d="M22.9426 3.85269C23.4233 3.37199 24.0753 3.10193 24.7551 3.10193C25.4349 3.10193 26.0869 3.37199 26.5676 3.85269C27.0483 4.3334 27.3184 4.98537 27.3184 5.66519C27.3184 6.34501 27.0483 6.99699 26.5676 7.47769L15.0885 18.9569L10.2551 20.1652L11.4635 15.3319L22.9426 3.85269Z" stroke="#19BD22" stroke-width="3" stroke-linecap="round" stroke-linejoin="round"/>
</g>
</svg>
