<svg width="32" height="32" viewBox="0 0 32 32" fill="none" xmlns="http://www.w3.org/2000/svg">
<g id="Frame 691315658">
<path id="Subtract" fill-rule="evenodd" clip-rule="evenodd" d="M16.3695 29.7801C19.1255 28.5805 28.2118 23.9841 28.2118 15.5225V8.29498C28.2118 7.38656 27.684 6.56089 26.8595 6.1795L16.5649 1.41746C15.9442 1.1303 15.2286 1.1303 14.6078 1.41746L4.31321 6.1795C3.48872 6.56089 2.96094 7.38655 2.96094 8.29498V15.5225C2.96094 23.9841 12.0472 28.5805 14.8033 29.7801C15.3066 29.9991 15.8662 29.9991 16.3695 29.7801ZM15.5855 17.3433C14.4033 17.3433 13.3945 18.0983 13.0206 19.1561C12.8062 19.7629 12.1403 20.081 11.5335 19.8665C10.9266 19.652 10.6085 18.9862 10.823 18.3793C11.3645 16.8474 12.6245 15.6534 14.1999 15.2049C13.1794 14.6953 12.4785 13.6409 12.4785 12.4227C12.4785 10.7063 13.8699 9.31488 15.5863 9.31488C17.3027 9.31488 18.6941 10.7063 18.6941 12.4227C18.6941 13.6411 17.993 14.6957 16.9721 15.2051C18.5471 15.6539 19.8067 16.8478 20.348 18.3793C20.5625 18.9862 20.2445 19.652 19.6376 19.8665C19.0308 20.081 18.3649 19.7629 18.1504 19.1561C17.7766 18.0983 16.7677 17.3433 15.5855 17.3433Z" fill="#89888E"/>
</g>
</svg>
