<svg width="142" height="142" viewBox="0 0 142 142" fill="none" xmlns="http://www.w3.org/2000/svg">
<g id="Frame 1000003448">
<path id="Star 1" d="M63.5737 6.83076C67.7233 3.24376 73.8761 3.24376 78.0257 6.83076V6.83076C80.9696 9.37551 85.035 10.1842 88.7286 8.95971V8.95971C93.9351 7.23374 99.6195 9.5883 102.081 14.4902V14.4902C103.826 17.9679 107.273 20.2707 111.154 20.553V20.553C116.625 20.9508 120.975 25.3015 121.373 30.7721V30.7721C121.655 34.6531 123.958 38.0996 127.436 39.8456V39.8456C132.338 42.3066 134.692 47.991 132.966 53.1975V53.1975C131.742 56.8911 132.551 60.9565 135.095 63.9004V63.9004C138.682 68.05 138.682 74.2028 135.095 78.3524V78.3524C132.551 81.2963 131.742 85.3617 132.966 89.0553V89.0553C134.692 94.2617 132.338 99.9461 127.436 102.407V102.407C123.958 104.153 121.655 107.6 121.373 111.481V111.481C120.975 116.951 116.625 121.302 111.154 121.7V121.7C107.273 121.982 103.826 124.285 102.081 127.763V127.763C99.6195 132.664 93.9351 135.019 88.7286 133.293V133.293C85.035 132.069 80.9696 132.877 78.0257 135.422V135.422C73.8761 139.009 67.7233 139.009 63.5737 135.422V135.422C60.6299 132.877 56.5644 132.069 52.8708 133.293V133.293C47.6644 135.019 41.98 132.664 39.5189 127.763V127.763C37.7729 124.285 34.3264 121.982 30.4454 121.7V121.7C24.9748 121.302 20.6241 116.951 20.2263 111.481V111.481C19.9441 107.6 17.6412 104.153 14.1636 102.407V102.407C9.26164 99.9461 6.90708 94.2617 8.63305 89.0553V89.0553C9.85752 85.3617 9.04885 81.2963 6.5041 78.3524V78.3524C2.9171 74.2028 2.9171 68.05 6.5041 63.9004V63.9004C9.04885 60.9565 9.85752 56.8911 8.63305 53.1975V53.1975C6.90708 47.991 9.26164 42.3066 14.1636 39.8456V39.8456C17.6412 38.0996 19.9441 34.6531 20.2263 30.7721V30.7721C20.6241 25.3015 24.9748 20.9508 30.4454 20.553V20.553C34.3265 20.2707 37.773 17.9679 39.5189 14.4902V14.4902C41.98 9.5883 47.6644 7.23374 52.8708 8.95971V8.95971C56.5644 10.1842 60.6298 9.37551 63.5737 6.83076V6.83076Z" fill="#F5705E"/>
<g id="Ellipse 1" filter="url(#filter0_d_60_419)">
<circle cx="70.8" cy="71.1262" r="50.6909" fill="white"/>
</g>
<path id="Stroke-3" d="M54.8477 71.4809L65.4851 82.1154L86.751 60.8464" stroke="#F5705E" stroke-width="4.25378" stroke-linecap="round" stroke-linejoin="round"/>
</g>
<defs>
<filter id="filter0_d_60_419" x="17.2733" y="20.4353" width="107.054" height="107.054" filterUnits="userSpaceOnUse" color-interpolation-filters="sRGB">
<feFlood flood-opacity="0" result="BackgroundImageFix"/>
<feColorMatrix in="SourceAlpha" type="matrix" values="0 0 0 0 0 0 0 0 0 0 0 0 0 0 0 0 0 0 127 0" result="hardAlpha"/>
<feOffset dy="2.83586"/>
<feGaussianBlur stdDeviation="1.41793"/>
<feComposite in2="hardAlpha" operator="out"/>
<feColorMatrix type="matrix" values="0 0 0 0 0 0 0 0 0 0 0 0 0 0 0 0 0 0 0.25 0"/>
<feBlend mode="normal" in2="BackgroundImageFix" result="effect1_dropShadow_60_419"/>
<feBlend mode="normal" in="SourceGraphic" in2="effect1_dropShadow_60_419" result="shape"/>
</filter>
</defs>
</svg>
