<svg width="38" height="38" viewBox="0 0 38 38" fill="none" xmlns="http://www.w3.org/2000/svg">
<g id="trash-empty">
<path id="Rectangle 19 (Stroke)" fill-rule="evenodd" clip-rule="evenodd" d="M10.0316 9.77394C10.8021 9.7208 11.4699 10.3024 11.523 11.0729L12.7419 28.7467C12.7925 29.48 13.4021 30.049 14.1371 30.049H24.2992C25.0342 30.049 25.6438 29.48 25.6944 28.7467L26.9132 11.0729C26.9664 10.3024 27.6341 9.7208 28.4047 9.77394C29.1752 9.82708 29.7568 10.4948 29.7036 11.2654L28.4847 28.9392C28.333 31.139 26.5043 32.846 24.2992 32.846H14.1371C11.932 32.846 10.1032 31.139 9.9515 28.9392L8.73262 11.2654C8.67948 10.4948 9.26105 9.82708 10.0316 9.77394Z" fill="#EB6363"/>
<path id="Vector 6 (Stroke)" fill-rule="evenodd" clip-rule="evenodd" d="M6.63159 10.4708C6.63159 9.69846 7.25773 9.07233 8.0301 9.07233H30.4063C31.1786 9.07233 31.8048 9.69846 31.8048 10.4708C31.8048 11.2432 31.1786 11.8693 30.4063 11.8693H8.0301C7.25773 11.8693 6.63159 11.2432 6.63159 10.4708Z" fill="#EB6363"/>
<path id="Ellipse 9 (Stroke)" fill-rule="evenodd" clip-rule="evenodd" d="M19.2159 7.67354C17.6711 7.67354 16.4188 8.92581 16.4188 10.4706C16.4188 11.2429 15.7927 11.8691 15.0203 11.8691C14.248 11.8691 13.6218 11.2429 13.6218 10.4706C13.6218 7.38106 16.1264 4.87653 19.2159 4.87653C22.3054 4.87653 24.8099 7.38106 24.8099 10.4706C24.8099 11.2429 24.1838 11.8691 23.4114 11.8691C22.639 11.8691 22.0129 11.2429 22.0129 10.4706C22.0129 8.92581 20.7606 7.67354 19.2159 7.67354Z" fill="#EB6363"/>
</g>
</svg>
